<?xml version="1.0" encoding="iso-8859-1"?>
<!-- Uploaded to: SVG Repo, www.svgrepo.com, Generator: SVG Repo Mixer Tools -->
<svg height="800px" width="800px" version="1.1" id="Layer_1" xmlns="http://www.w3.org/2000/svg" xmlns:xlink="http://www.w3.org/1999/xlink" 
	 viewBox="0 0 512.001 512.001" xml:space="preserve">
<path style="fill:#CAD1D8;" d="M24,16h464c13.254,0,24,10.745,24,24v432c0,13.254-10.745,24-24,24H24C10.745,496,0,485.255,0,472V40
	C0,26.745,10.745,16,24,16z"/>
<g>
	<circle style="fill:#9BA7AF;" cx="24.002" cy="47.995" r="7.998"/>
	<circle style="fill:#9BA7AF;" cx="56.002" cy="47.995" r="7.998"/>
	<circle style="fill:#9BA7AF;" cx="88.002" cy="47.995" r="7.998"/>
</g>
<path style="fill:#FFFFFF;" d="M24,80h464c4.418,0,8,3.582,8,8v384c0,4.418-3.582,8-8,8H24c-4.418,0-8-3.582-8-8V88
	C16,83.582,19.582,80,24,80z"/>
<path style="fill:#E2E5E7;" d="M120,40h368c4.418,0,8,3.582,8,8l0,0c0,4.418-3.582,8-8,8H120c-4.418,0-8-3.582-8-8l0,0
	C112,43.582,115.582,40,120,40z"/>
<path style="fill:#ABE1FA;" d="M48,112h416c4.418,0,8,3.582,8,8v80c0,4.418-3.582,8-8,8H48c-4.418,0-8-3.582-8-8v-80
	C40,115.582,43.582,112,48,112z"/>
<circle style="fill:#F19F35;" cx="88.002" cy="143.995" r="15.995"/>
<g>
	<path style="fill:#595A66;" d="M472,200.001v-22.32l-36.24-36.24c-2.809-2.797-7.351-2.797-10.16,0l-66.56,66.56h104.96
		C468.418,208,472,204.418,472,200.001z"/>
	<path style="fill:#595A66;" d="M353.6,156.8L304,208h105.2l-44.8-51.2c-2.63-2.983-7.18-3.267-10.163-0.638
		C354.012,156.361,353.799,156.575,353.6,156.8z"/>
</g>
<path style="fill:#35363E;" d="M403.52,185.12c-4.304-4.906-11.392-6.257-17.2-3.28l22.88,26.16h14.32L403.52,185.12z"/>
<path style="fill:#595A66;" d="M298.08,156.8L248.481,208h105.2l-44.8-51.2c-2.63-2.983-7.18-3.267-10.163-0.638
	C298.492,156.361,298.279,156.575,298.08,156.8z"/>
<path style="fill:#35363E;" d="M348,185.12c-4.304-4.906-11.392-6.257-17.2-3.28l22.88,26.16h14.32L348,185.12z"/>
<path style="fill:#6F707E;" d="M430.795,149.816L430.795,149.816c1.562,1.562,1.562,4.095,0,5.657l-11.314,11.314
	c-1.562,1.562-4.095,1.562-5.657,0l0,0c-1.562-1.562-1.562-4.095,0-5.657l11.314-11.314
	C426.7,148.254,429.233,148.254,430.795,149.816z"/>
<path style="fill:#35363E;" d="M472,177.68l-5.52-5.52c-1.988-1.988-5.211-1.988-7.2,0s-1.988,5.211,0,7.2l0,0l4.16,4.16
	c4.011,4.041,6.952,9.018,8.56,14.48v-20.32H472z"/>
<g>
	<path style="fill:#595A66;" d="M320,208l-59.28-66.56c-2.809-2.797-7.351-2.797-10.16,0L184,208H320z"/>
	<path style="fill:#595A66;" d="M185.6,156.8L136,208h105.2l-44.8-51.2c-2.63-2.983-7.18-3.267-10.163-0.638
		C186.012,156.361,185.799,156.575,185.6,156.8z"/>
</g>
<g>
	<path style="fill:#35363E;" d="M235.52,185.12c-4.304-4.906-11.392-6.257-17.2-3.28l22.88,26.16h14.32L235.52,185.12z"/>
	<path style="fill:#35363E;" d="M302.96,172.88c-4.304-4.906-11.392-6.257-17.2-3.28l34.241,38.4h14.32L302.96,172.88z"/>
</g>
<g>
	<path style="fill:#6F707E;" d="M258.16,149.821L258.16,149.821c1.562,1.562,1.562,4.095,0,5.657l-11.314,11.314
		c-1.562,1.562-4.095,1.562-5.657,0l0,0c-1.562-1.562-1.562-4.095,0-5.657l11.314-11.314
		C254.065,148.259,256.598,148.259,258.16,149.821z"/>
	<path style="fill:#6F707E;" d="M190.816,165.824L190.816,165.824c1.562,1.562,1.562,4.095,0,5.657l-11.314,11.314
		c-1.562,1.562-4.095,1.562-5.657,0l0,0c-1.562-1.562-1.562-4.095,0-5.657l11.314-11.314
		C186.721,164.262,189.253,164.262,190.816,165.824z"/>
</g>
<g>
	<path style="fill:#CAD1D8;" d="M48,336h136.001c4.418,0,8,3.582,8,8l0,0c0,4.418-3.582,8-8,8H48c-4.418,0-8-3.582-8-8l0,0
		C40,339.582,43.582,336,48,336z"/>
	<path style="fill:#CAD1D8;" d="M48,272h136.001c4.418,0,8,3.582,8,8l0,0c0,4.418-3.582,8-8,8H48c-4.418,0-8-3.582-8-8l0,0
		C40,275.582,43.582,272,48,272z"/>
	<path style="fill:#CAD1D8;" d="M48,304h112c4.418,0,8.001,3.582,8.001,8l0,0c0,4.418-3.582,8-8.001,8H48c-4.418,0-8-3.582-8-8l0,0
		C40,307.582,43.582,304,48,304z"/>
	<path style="fill:#CAD1D8;" d="M288,336h152c4.418,0,8,3.582,8,8l0,0c0,4.418-3.582,8-8,8H288c-4.418,0-8-3.582-8-8l0,0
		C280,339.582,283.582,336,288,336z"/>
	<path style="fill:#CAD1D8;" d="M288,272h176c4.418,0,8,3.582,8,8l0,0c0,4.418-3.582,8-8,8H288c-4.418,0-8-3.582-8-8l0,0
		C280,275.582,283.582,272,288,272z"/>
	<path style="fill:#CAD1D8;" d="M288,304h120c4.418,0,8,3.582,8,8l0,0c0,4.418-3.582,8-8,8H288c-4.418,0-8-3.582-8-8l0,0
		C280,307.582,283.582,304,288,304z"/>
	<path style="fill:#CAD1D8;" d="M48,368h88.001c4.418,0,8,3.582,8,8l0,0c0,4.418-3.582,8-8,8H48c-4.418,0-8-3.582-8-8l0,0
		C40,371.582,43.582,368,48,368z"/>
	<path style="fill:#CAD1D8;" d="M288,368h120c4.418,0,8,3.582,8,8l0,0c0,4.418-3.582,8-8,8H288c-4.418,0-8-3.582-8-8l0,0
		C280,371.582,283.582,368,288,368z"/>
</g>
<path style="fill:#E2E5E7;" d="M56,416h48c8.837,0,16,7.163,16,16l0,0c0,8.837-7.163,16-16,16H56c-8.837,0-16-7.163-16-16l0,0
	C40,423.163,47.164,416,56,416z"/>
<path style="fill:#3CB54A;" d="M56,408h48c8.837,0,16,7.163,16,16l0,0c0,8.837-7.163,16-16,16H56c-8.837,0-16-7.163-16-16l0,0
	C40,415.164,47.164,408,56,408z"/>
<circle style="fill:#0E9347;" cx="79.995" cy="423.998" r="7.998"/>
<path style="fill:#E2E5E7;" d="M296,416h48c8.837,0,16,7.163,16,16l0,0c0,8.837-7.163,16-16,16h-48c-8.837,0-16-7.163-16-16l0,0
	C280,423.163,287.164,416,296,416z"/>
<path style="fill:#3CB54A;" d="M296,408h48c8.837,0,16,7.163,16,16l0,0c0,8.837-7.163,16-16,16h-48c-8.837,0-16-7.163-16-16l0,0
	C280,415.164,287.164,408,296,408z"/>
<circle style="fill:#0E9347;" cx="320" cy="423.998" r="7.998"/>
<g>
	<path style="fill:#595A66;" d="M48,240h80c4.418,0,8.001,3.582,8.001,8.001l0,0c0,4.418-3.582,8.001-8.001,8.001H48
		c-4.418,0-8-3.582-8-8.001l0,0C40,243.582,43.582,240,48,240z"/>
	<path style="fill:#595A66;" d="M288,240h80c4.418,0,8,3.582,8,8.001l0,0c0,4.418-3.582,8.001-8,8.001h-80c-4.418,0-8-3.582-8-8.001
		l0,0C280,243.582,283.582,240,288,240z"/>
</g>
</svg>